<svg xmlns="http://www.w3.org/2000/svg" id="Layer_2" viewBox="0 0 1024.95 225.86"><defs><style>.cls-1{fill:#6c7c69;}</style></defs><g id="Layer_1-2"><path class="cls-1" d="M.52,36.35c-.47,2.33-.92,5.42.04,7.61,4.05,9.26,9.69,8.92,13.74,18.18,3.29,7.52-.49,15.95,15.07,24.24,3.4,1.81,8.14,2.53,11.86,3.52,3.72,1,7.15,5.23,5.15,8.49-.97,1.6-2.87,2.32-4.44,3.33-5.78,3.74-7.21,12.06-4.74,18.53,2.47,6.47,7.97,11.34,13.76,15.16,13.08,8.63,28.74,13.27,44.36,13.16,5.54-.04,14.63,2.03,17.89,10.43,5.8,14.97-22.46,19.86-18.93,35.51.9,3.98,4.25,6.9,7.6,9.24,18.34,12.76,42.74,16.31,63.8,9.27,5.91-1.98,12.61-4.69,18.06-1.59,3.7,2.1,5.62,6.32,8.68,9.27,7.02,6.76,18.25,5.66,27.67,3.43,26.1-6.19,50.89-17.67,72.44-33.53,8.61-6.34,21.04-10.94,25.76,2.16,2.81,7.78,17.08,15.15,25,12.89,29.1-8.31,45.44-37.69,71.96-52.17,6.35-3.47,30.06-24.52,25.44-30.11-99.83,61.71-243.68,26.55-330.95-33.49,54.87,37.74,145.48,62.67,211.75,60.07,54.51-2.14,103.95-18.06,164.36-61.51,3.89-2.8,19.6-13.9,22.67-17.01l-15.9-2.81c-6.61,7.07-25.83,27.24-59.14,43.97-2.28-4.86-5.13-5.91-14.48-6.38-9.35-.47-18.81,1.96-28.01.16-9.32-1.83-17.25-7.78-24.97-13.35-7.72-5.57-16.09-11.11-25.55-11.88-9.46-.77-20.08,5.05-21.19,14.46-.37,3.07.14,6.62-1.98,8.86-2.94,3.09-8.17,1.03-11.62-1.54-21.98-16.41-29.67-45.42-45.65-67.7-3.04-4.24-6.71-8.47-11.71-9.94-7.31-2.16-14.84,2.18-22.43,2.44-10.64.36-16.45-1.18-23.86-8.87-7.41-7.7-11.6-15.78-21.94-18.41-12.68-3.22-29.05,11.82-19.48,27.19,1.38,2.22,1.8,8.67-3.31,11.47-8.35,4.57-14.68,1.43-20.75-5.99-10.01-12.24-22.73-22.26-36.97-29.11-7.23-3.48-18.09-4.92-21.21,2.42-1.99,4.67.73,10.49-1.56,15.02-2.74,5.43-10.65,5.42-16.32,3.11-5.67-2.3-11.11-6.16-17.2-5.84-8.71.46-14.86,9.19-23.4,10.91-7.23,1.45-17.9-.49-19.35,6.73Z"></path><path class="cls-1" d="M959.7,164.9c2.95-14.66-6.77-8.71-4.56-20.58,5.08-27.26,41.57-15.64,59.25-36.7,4.96-5.91,9.23-12.75,10.31-20.47,1.48-10.56-3.62-21.53-15.19-21.72-10.17-.17-18.75,6.6-27.67,10.29-9.5,3.93-20.3,4.81-30.48,2.48-2.02-.46-4.5-1.68-4.31-3.73.16-1.7,7.2-11.54-1.86-19.4-10.51-9.12-24.01-14.37-37.74-14.82-20.38-.67-34.83,6.84-40.52,3.64-5.88-3.32-5.75-6.96-1.58-12.61,7.22-9.78.38-16.68-3.75-19.31-10.69-6.81-25.68-8.22-37.91-5.68-13.41,2.78-25.49,8.86-34.03,17.76-3.54,3.69-5.78,7.97-9.86,4.36-2.55-2.25-1.78-6.36-4.25-8.71-2.47-2.35-5.14-3.07-8.5-3.11-15.69-.2-31.02,6.5-42.77,16.62-10.91,9.39-18.5,34.05-31.77,25.49-2.99-1.93-.19-5.31,1.17-8.51,1.13-2.65-.7-5.92-3.31-7.27-2.61-1.36-6.34-2.59-9.23-2.73-17.87-.92-23.98,7.57-32.64,14.65-10.39,8.48-25.48,21.09-38.08,29.04-10.29,6.49-20.42,17.2-21.51,21.55,27.66-14.22,72.76-33.63,162.35-11.2,99.99,25.03,129.93,25.41,184.34,15.95-89.21,24.4-178.23-14.94-234.01-19.08-56.3-4.18-103.27,8.96-150.63,42.31-24.95,17.57-31.7,23.58-42.45,27.52l14.45,3.71c12.81-3.27,34.36-32.19,60.58-41.11,0,0-2.41,6.59-2.21,9.74.24,3.82,2.39,7.77,6.13,9.22,5.22,2.02,10.84-.43,16.12-1.96,15.02-4.36,32.3-.79,44.74,9.24,5.62,4.53,13.03,14.51,18.76,18.89,5.73,4.39,13.22,7.42,19.98,5.38,6.76-2.04,2.8-11.13,7.02-16.74,7.95-10.57,18.67,18.84,26.58,29.88,10.43,14.57,44.11,36.04,53.67,29.5,9.07-6.2-2.33-14.54,4.95-21.8,12.54-12.51,31.28,20.27,48.81,24.72,4.42,1.12,9.19,2.19,13.37.56,8.59-3.36,13.71-10.9,9.51-19.32-4.2-8.42-6.04-10.26-7.73-15.52-2.18-6.77,4.4-9.8,9.75-5.93,16.44,11.87,29.93,15.86,50.69,16.91,11.65.59,20.36-6.15,31.09-10.39,9.15-3.61,22.72-10.12,24.9-20.98Z"></path></g></svg>