<svg xmlns="http://www.w3.org/2000/svg" id="Layer_2" viewBox="0 0 3374.58 2352.66"><defs><style>.cls-1{fill:#fff;}</style></defs><g id="Layer_1-2"><path class="cls-1" d="M2247.05,2093.28c-120.6-85.78-235.41-139.64-362.66-215.19-127.25-75.56-270.74-142.2-360.39-259.95s-114.37-258.95-84.93-403.99c3.8-18.73-2.74-36.59-14.79-51.09-20.88-25.14-55.89-33.32-87.56-25.24-99.77,25.45-67.94,124.3-124.32,175.9-15.09,13.8-36.39,20.46-55.67,13.65-40.38-14.27-38.17-67.73-25-106.06,15.86-46.19,39.05-89.56,55.48-135.54,20.93-58.55,30.64-124.39-2.39-181.4-12.48-21.54-31.56-39.27-54.66-48.53-74.5-29.86-138.71,32.38-167.18,97.87-9.25,21.27-16.4,43.78-29.86,62.66-13.46,18.88-35.25,33.98-58.33,31.7-24.29-2.4-43.49-23.86-49.94-47.4-6.45-23.54-2.48-48.66,3.63-72.29,12.82-49.52,34.82-96.4,46.12-146.28,11.3-49.89,10.46-105.96-19.13-147.69-26.65-37.58-75.63-57.93-121.07-50.29-45.43,7.64-85.07,42.88-97.96,87.11-7.05,24.19-6.58,50.08-13.66,74.26-8.42,28.77-32.75,57.33-65.58,47.86-14.98-4.32-26.8-16.09-33.6-30.11-14.89-30.67-8.87-64.05-9.54-96.63-1.8-88.22-59.25-174.19-142.02-204.76-82.77-30.58-185.41-.18-234.09,73.41-48.68,73.59-34.21,183.67,34.9,238.53,23.03,18.28,50.44,30.33,73.85,48.13,23.4,17.8,43.5,44.25,41.91,73.61-2.57,47.41-57.27,73.47-104.53,78.09-54.94,5.37-115.79-2.58-156.3,41.73-33.94,37.12-35.83,92.76-10.86,136.41,40.96,71.6,129.45,91.63,206.76,78.87,22.42-3.7,45.01-9.81,67.54-6.84,22.53,2.96,45.57,18.2,48.55,40.73,3.24,24.44-17.87,45.69-40.23,56.09-22.35,10.41-47.62,14.53-68.31,27.93-43.29,28.05-52.95,92.56-28.22,137.83,24.73,45.27,76.06,71.48,127.35,76.93,51.29,5.45,102.82-7.15,151.65-23.76,37.08-12.61,75.34-27.88,114.82-13.91,16.56,5.86,30.85,18.24,36.93,34.72,13.57,36.77-15.74,65.93-45.9,81.78-39.37,20.7-86.83,30.18-97.64,89.97-5.38,29.74,2,60.88,19.6,85.44,37.43,52.25,103.32,69.93,165.62,72.51,118.9,4.92,238.06-66.7,352.76-97.49,115.07-30.89,298,7.74,409.55,49.62,284.8,106.94,550.16,278.69,747.32,510.45,85.06-25.01,146.56-66.75,199.7-137.72-30.55-43.68-94.23-90.72-137.72-121.65ZM1396.68,1680.79c-32.09-.04-63.93-7-92.66-21.29-54.64-27.19-108.05-56.78-160.22-88.42-115.3,7.51-229.3,34.71-335.37,80.55,65.44-44.82,137.77-79.55,213.66-102.61,22.09-6.71,44.92-12.19,67.93-11.8-106.06-68.55-206.34-146.01-299.45-231.37-112.13-.4-224.31,17.74-330.42,53.98,68.77-39.53,143.61-68.46,221.08-85.47,22.77-5,46.19-8.71,69.32-6.37-67.26-64.73-130.64-133.47-189.39-205.99-99.34-8.9-199.24-5.42-294.12,10.61,60.98-20.66,127.02-34,195.1-39.4,21.55-1.71,43.74-2.6,65.37,1.55,5.17.99,10.3,2.36,15.29,4-86.58-109.81-163.15-227.48-227.43-351.71h.22c13.47.92,25.3,8.89,31.43,20.92,110.86,217.52,285.64,416.58,472.31,572.76,192.22,160.82,385.62,284.63,617.3,400.12l-39.95-.05Z"></path><path class="cls-1" d="M989.8,2214.94c53.13,70.97,114.64,112.72,199.7,137.72,197.16-231.75,462.53-403.51,747.32-510.45,111.54-41.88,294.47-80.52,409.55-49.62,114.7,30.79,233.86,102.41,352.76,97.49,62.3-2.58,128.19-20.26,165.62-72.51,17.6-24.57,24.98-55.71,19.6-85.44-10.81-59.79-58.27-69.27-97.64-89.97-30.15-15.85-59.47-45-45.9-81.78,6.08-16.48,20.37-28.86,36.93-34.72,39.48-13.97,77.74,1.3,114.82,13.91,48.83,16.61,100.36,29.21,151.65,23.76,51.29-5.45,102.62-31.66,127.35-76.93,24.73-45.27,15.07-109.78-28.22-137.83-20.69-13.4-45.97-17.52-68.31-27.93-22.35-10.41-43.46-31.65-40.23-56.09,2.98-22.53,26.02-37.77,48.55-40.73,22.53-2.96,45.12,3.14,67.54,6.84,77.31,12.75,165.8-7.27,206.76-78.87,24.98-43.65,23.08-99.29-10.86-136.41-40.51-44.31-101.36-36.36-156.3-41.73-47.26-4.62-101.96-30.68-104.53-78.09-1.59-29.36,18.51-55.81,41.91-73.61,23.41-17.8,50.82-29.85,73.85-48.13,69.11-54.86,83.58-164.93,34.9-238.53-48.68-73.59-151.32-103.99-234.09-73.41-82.77,30.58-140.22,116.55-142.02,204.76-.67,32.58,5.35,65.96-9.54,96.63-6.81,14.02-18.63,25.79-33.6,30.11-32.83,9.47-57.16-19.09-65.58-47.86-7.08-24.18-6.61-50.08-13.66-74.26-12.89-44.23-52.53-79.48-97.96-87.11-45.43-7.64-94.42,12.71-121.07,50.29-29.59,41.73-30.43,97.8-19.13,147.69,11.3,49.89,33.31,96.76,46.12,146.28,6.11,23.63,10.08,48.75,3.63,72.29-6.45,23.54-25.65,45.01-49.94,47.4-23.08,2.28-44.86-12.82-58.33-31.7-13.46-18.88-20.61-41.39-29.86-62.66-28.47-65.49-92.68-127.74-167.18-97.87-23.11,9.26-42.18,26.99-54.66,48.53-33.03,57.01-23.31,122.84-2.39,181.4,16.44,45.98,39.62,89.36,55.48,135.54,13.16,38.33,15.38,91.79-25,106.06-19.28,6.81-40.59.16-55.67-13.65-56.39-51.6-24.55-150.45-124.32-175.9-31.67-8.08-66.68.1-87.56,25.24-12.04,14.5-18.59,32.36-14.79,51.09,29.44,145.03,4.72,286.23-84.93,403.99s-233.13,184.39-360.39,259.95c-127.25,75.56-242.06,129.42-362.66,215.19-43.49,30.93-107.17,77.97-137.72,121.65ZM1937.94,1680.84c231.68-115.49,425.09-239.3,617.3-400.12,186.67-156.18,361.45-355.24,472.31-572.76,6.13-12.03,17.96-20,31.43-20.9h.22c-64.28,124.21-140.85,241.89-227.43,351.7,4.98-1.64,10.12-3.01,15.29-4,21.63-4.16,43.82-3.26,65.37-1.55,68.07,5.4,134.12,18.74,195.1,39.4-94.87-16.03-194.77-19.51-294.12-10.61-58.75,72.52-122.13,141.26-189.39,205.99,23.12-2.35,46.55,1.37,69.32,6.37,77.47,17.01,152.31,45.94,221.08,85.47-106.12-36.24-218.29-54.38-330.42-53.98-93.11,85.36-193.39,162.82-299.45,231.37,23.01-.39,45.84,5.09,67.93,11.8,75.89,23.06,148.22,57.79,213.66,102.61-106.07-45.84-220.07-73.03-335.37-80.55-52.17,31.64-105.58,61.24-160.22,88.42-28.73,14.3-60.57,21.25-92.66,21.29l-39.95.05Z"></path><path class="cls-1" d="M1727.57,697.52c.63,12.1,2.36,24.65,1.07,37.37-.36,7.04-.73,14.22-1.09,21.35,2.89-.68,6.11-1.55,8.86-2.18,19.42-4.58,35.31-7.6,46.04-9.46,0-.12.02-.23.02-.35.22-7.75.44-15.5.65-23.12.54-7.64.24-15.15.32-22.45-.17-7.28.68-14.44.28-21.15-.1-2.01-.03-3.77-.07-5.72-10.94,4.98-25.7,11.45-43.43,18.55-4.1,1.67-8.4,3.4-12.78,5.13.05.68.09,1.33.14,2.02Z"></path><path class="cls-1" d="M1623.93,791.62c17.5-7,34.89-13.89,51.58-19.83,8.35-2.99,16.36-5.91,24.33-8.33.75-9.93,1.5-19.86,2.24-29.64,1.03-9.75,1.13-19.35,1.18-28.79-9.17,3.79-18.31,8.52-28.13,12.52-15.02,6.88-30.9,13.63-46.97,20.37.07,6.17-.08,12.39-.97,18.64-1.07,11.56-2.17,23.31-3.26,35.06Z"></path><path class="cls-1" d="M1726.34,775.45c-2.05,12.13-4.11,24.26-6.13,36.2-.84,6.87-2.52,13.48-4.38,19.98,5.56-1.89,11.02-3.71,16.43-4.85,7.13-1.78,13.97-3.13,20.29-4.34,9.25-1.85,17.4-3.14,24.05-4.04.28-2.58.43-4.98.82-7.65,1.04-6.53.87-13.82,1.73-21.03.59-7.28,1.65-14.72,1.81-22.38.38-5.68.76-11.45,1.14-17.21-9.72,4.87-23.67,11.58-40.56,18.91-4.68,2.06-10.08,4.26-15.18,6.42Z"></path><path class="cls-1" d="M1701.91,630.18c-6.45,2.66-13.08,5.36-20.07,8.04-11.83,4.22-23.26,11.34-35.8,16.81-7.49,3.66-15.42,7.28-23.22,10.9,1.04,6.49,2.1,12.8,3.01,19.91,1.25,7.52,1.49,15.46,1.66,23.55,13.22-5.1,26.28-10.01,38.98-14.49,12.37-4.32,24.08-9.18,35.87-11.78.44-.11.84-.2,1.28-.31.24-6.2.41-12.28-.14-18.12-.74-10.62-1.1-20.74-1.39-30.14-.02-1.52-.14-2.88-.19-4.36Z"></path><path class="cls-1" d="M1503.58,769.97c2.7-13.04,5.32-25.96,7.15-38.45.52-3.87,1.28-7.62,2.01-11.37-6.73,3.48-13.54,7.1-20.15,10.37-11.97,6.61-24.46,11.19-35.16,18.12-3.94,2.41-7.76,4.65-11.59,6.89-.64,6.53-1.29,13.21-2.94,19.84-1.79,7.96-3.6,16.04-5.42,24.13-2.51,7.35-5.02,14.69-7.5,21.94,7.67-5.93,16.54-12.63,26.72-20,8.42-6.14,17.55-12.8,27.41-19.5,5.9-4.33,12.58-8.16,19.46-11.96Z"></path><path class="cls-1" d="M1696.71,788.54c-4.03,1.99-8.07,4.02-12.31,5.82-20.63,9.81-42.98,19.25-65.31,28.79-.52.25-1.04.5-1.57.76-.51,2.47-1.03,4.98-1.54,7.43-2,12.35-6.64,23.85-10.18,35.17-2.7,7.81-5.2,15.33-8,22.6.64-.46,1.14-.9,1.79-1.36,5.75-4.4,12.6-8.22,19.46-12.33,13.86-8.11,28.99-16.31,44.34-24.04,8.08-3.36,16.21-6.59,24.25-9.66,2.4-11.25,5.11-22.79,6.43-34.79.87-6.07,1.76-12.25,2.65-18.39Z"></path><path class="cls-1" d="M1596.45,790.19c1.42-12.01,2.83-24.01,4.22-35.83.25-1.74.33-3.45.54-5.18-.07.03-.14.06-.21.09-24.5,12.01-48.96,24.07-72.44,34.54-.06.03-.12.05-.18.08-.88,5.07-1.75,10.1-2.63,15.19-2.92,10.73-5.84,21.46-8.71,32.02-1.73,7.42-4.37,14.43-7.03,21.33,1.45-1,2.82-1.99,4.31-3,8.54-6.18,18.63-11.38,28.75-17.07,15.98-9.05,33.24-18.03,50.64-27.02.92-5.06,1.83-10.07,2.75-15.15Z"></path><path class="cls-1" d="M1589.65,724.18c4.66-1.83,9.26-3.61,13.9-5.43.31-11.08,2.11-21.86,1.72-32.07-.07-4.45.07-8.35.1-12.6-12.29,5.58-24.76,11.16-37.25,16.75-10.73,5.78-21.43,11.53-32.08,17.2.08,8.51-.61,17.29-1.24,26.43-.57,6.33-1.02,12.85-1.67,19.4,18.31-9.88,37.28-19.77,56.52-29.67Z"></path><path class="cls-1" d="M1829.53,468.36c-8.73,3.17-19.33,7.01-31.49,11.42-12.22,4.03-25.81,9.12-40.4,15.4-14.65,6.06-30.48,12.56-47.35,18.95-16.96,6.12-33.85,15.33-52.05,22.75-18.02,7.94-36.72,15.82-55.2,25.11-18.6,8.97-37.51,18.09-56.41,27.21-18.64,9.67-37.29,19.35-55.64,28.87-18.45,9.35-36.42,18.95-53.56,28.75-17.07,9.86-34.33,18.28-49.96,27.35-15.49,9.27-30.45,17.64-44.29,25.39-13.82,7.73-26.64,14.79-37.73,21.59-4.2,2.43-7.99,4.62-11.77,6.81-24.6,17.71-48.9,35.87-72.85,54.43,48.21,131.63,175.45,230.68,314.89,245.11,139.44,14.44,284.27-56.43,358.43-175.39,74.16-118.96,74.03-280.2-.32-399.05-17.94,3.24-35.7,7.04-53.37,11.13-3.24,1.25-6.84,2.63-10.94,4.17ZM1735.35,675.32c19.74-4.5,36.27-7.67,48.21-9.77,0-2.34-.11-4.89-.09-7.11.29-11.97-.68-21.87-.38-29.07.07-7.15.35-11.36.35-11.36,0,0,1.97,3.61,4.99,10.14,2.72,6.58,7.68,15.92,10.66,27.83.59,2.06,1.16,4.53,1.76,6.72,1.82-.27,3.06-.45,3.06-.45,0,0-1.14.57-2.82,1.39,1.04,3.82,2.11,7.46,3.05,11.63,1.82,6.88,2.59,14.29,3.67,21.94.93,7.67,2.15,15.62,2.02,23.73.04,8.12.09,16.37.13,24.63-.84,8.21-1.67,16.42-2.5,24.5-.67,8.09-2.61,15.89-4.29,23.43-1.8,7.55-3.29,14.76-5.76,21.55-2.21,6.81-4.66,13.12-6.91,18.88-4.15,11.69-9.82,20.08-13.17,26.45-3.62,6.19-5.93,9.66-5.93,9.66,0,0,.11-4.16.74-11.31.37-7.11,2.43-17.32,3.24-29.14.04-.48.12-1.03.16-1.52-5.15,2.86-11.08,6.01-17.83,9.32-5.64,2.82-11.75,5.84-18.32,8.68-6.6,2.77-13.09,6.88-20.16,10.15-4.02,1.99-8.29,3.94-12.46,5.92-1.97,6.55-4.05,12.95-6.82,18.94-4.32,10.35-8.74,19.95-12.8,28.74-2.08,4.36-3.82,8.67-5.92,12.5-2.28,3.7-4.44,7.22-6.47,10.52-4.16,6.56-7.79,12.27-10.77,16.98-6.13,9.34-9.87,14.57-9.87,14.57,0,0,1.65-6.21,4.94-16.89,1.72-5.3,3.82-11.74,6.22-19.12,2.68-7.3,5.29-15.66,7.4-24.74,2.32-9.07,4.81-18.82,7.81-28.92.08-.26.11-.56.19-.82-1.95.84-3.86,1.72-5.82,2.54-14.72,7.36-29.66,14.26-43.99,20.3-7.08,3.23-14.33,5.38-20.85,8.67-6.52,3.18-12.87,5.87-18.73,8.35-1.94.83-3.75,1.57-5.59,2.33-1.72,3.53-3.45,7.05-5.09,10.35-3.89,8.71-8.42,15.97-12.71,22.24-4.23,6.33-7.91,11.85-10.94,16.39-6.23,9.01-10.01,14.05-10.01,14.05,0,0,1.72-6.06,5.13-16.47,1.78-5.16,3.95-11.44,6.43-18.63,2.31-5.98,4.55-12.82,6.59-20.07-8.65,3-13.99,4.5-13.99,4.5,0,0,6.39-6.58,17.43-16.1,1.91-6.7,3.78-13.4,6.11-20.59,3.41-9.73,4.8-20.95,7.88-31.83,1.72-7,3.44-14.17,5-21.44-11.04,5.27-21.98,10.37-32.7,15.06-10.22,5.01-20.72,8.47-30.04,13.54-8.88,4.64-17.43,8.73-25.42,12.53-1.38,3.26-2.72,6.54-4.31,9.62-4.14,8.68-8.39,16.7-12.29,24.05-7.42,14.95-16,25.64-21.28,33.75-5.57,7.89-8.99,12.28-8.99,12.28,0,0,1.34-5.4,4.09-14.66,2.44-9.3,7.69-22.25,11.85-37.89,1.34-4.69,2.98-9.9,4.51-14.96-19.3,8.51-31.61,13.05-31.61,13.05,0,0,13.71-12.06,36.3-29.03,1.97-7.04,3.63-14.44,5.95-21.84,5.3-17.69,9.43-36.85,14.1-55.91-.94.5-1.99.87-2.9,1.39-10.47,5.7-20.56,10.77-29.88,15.45-15.69,7.96-29.21,14.33-39.81,19.15-1.67,3.68-3.45,7.27-5.15,10.81-3.49,6.96-6.57,13.68-10.56,19.75-3.73,6.15-7.58,11.75-11.1,16.86-6.74,10.47-14.24,17.32-18.98,22.77-4.97,5.21-8.03,8.05-8.03,8.05,0,0,1.08-4.03,3.36-10.86,2.01-6.86,6.43-16.33,9.94-27.69,1.87-5.66,3.86-11.72,6.31-17.91,2.52-6.12,4.01-13.29,6.5-20.13,2.24-6.98,4.98-13.99,6.87-21.44,2.22-7.32,4.47-14.76,6.73-22.19,1.68-6.49,3.36-12.95,5.03-19.36-32.7,18.37-54.92,28.87-54.92,28.87,0,0,21.82-20.35,56.61-47.86,1.18-.94,2.49-1.97,3.7-2.93.23-1,.5-2.05.74-3.04,1.46-7.16,3.89-13.97,4.97-20.62,1.16-6.64,2.6-12.91,3.98-18.74,2.93-11.65,4.12-21.56,5.99-28.54,1.63-6.99,2.82-11.05,2.82-11.05,0,0,1.13,3.96,2.66,11.02,1.21,7.04,4.04,17.28,4.31,29.6.35,6.17.69,12.89.67,20,.02.4-.04.81-.03,1.21,9.57-7.44,20.95-13.62,32.25-20.59,12.2-7.41,24.98-14.85,38.03-22.31.53-3.5,1-7.31,1.53-10.61,2.83-16.05,3.58-29.59,5.3-39.11,1.44-9.53,2.51-15.04,2.51-15.04,0,0,1.24,5.38,2.96,14.9,1.36,9.52,4.63,23.25,5.02,39.82,0,.08,0,.17,0,.25,6.95-3.92,13.84-7.84,20.82-11.77,16.71-7.12,33.29-14.13,49.68-20.91-.05-4.69-.21-9.17-.49-13.3-.25-7.55-.48-14.13-.66-19.55-.2-10.92-.07-17.29-.07-17.29,0,0,2.14,5.85,5.47,16.32,1.58,5.28,3.5,11.68,5.7,19.03.94,3.02,1.82,6.32,2.67,9.68,6.18-2.51,12.5-5.17,18.55-7.52,13.04-4.94,25.29-10.63,37.8-13.63,9.07-2.55,17.68-4.75,25.99-6.83-.12-1.03-.2-2.19-.33-3.19-.72-7.67-1.36-14.35-1.88-19.86-.88-11.11-1.15-17.6-1.15-17.6,0,0,2.5,5.84,6.48,16.32,1.91,5.29,4.22,11.71,6.88,19.07.28.8.59,1.73.88,2.55,42.23-10.54,70.61-15.22,70.61-15.22,0,0-26.25,13.46-66.14,30.11.57,2.61,1.15,5.13,1.79,7.88,2.06,9.42,4.26,19.68,6.23,30.62,1.04,4.71,1.56,9.64,2.01,14.63,3.14-.71,6.36-1.46,9.37-2.12Z"></path><path class="cls-1" d="M1467.78,97.14c-15.81.27-31.58,1.9-47.21,4.68-19.87,3.53-40.06-4.25-52.76-19.94L1301.5,0l13.36,100.25c2.8,21-6.35,42-24.03,53.67-27.17,17.93-51.86,39.64-72.64,64.81-24.64,29.86-44.09,64.03-56.21,100.5-24.19,72.75-18.34,151.74,2.66,223.74,20.98,71.91,56.34,138.15,91.49,203.83,3.66-3.43,9.03-8.42,15.94-14.68,14.14-12.26,33.23-30.79,59.17-49.8,25.33-19.8,55.67-42.09,89.76-63.24,16.93-10.79,34.21-22.37,52.98-32.07,18.54-10.1,37.37-20.35,56.21-30.61,19.51-8.95,39.03-17.9,58.24-26.71,18.9-9.47,38.95-15.56,57.72-22.79,18.97-6.77,36.98-14.07,54.95-18.59,17.78-5.04,34.7-9.35,50.28-13.26,7.81-1.91,15.2-4.02,22.37-5.52,7.26-1.16,14.15-2.27,20.62-3.3,12.92-1.92,24.19-3.59,33.47-4.96,7.34-.99,13.03-1.7,17.71-2.27-38.88-92.89-71.36-171.54-133.28-248.56-57.96-72.1-150.27-114.87-244.48-113.29Z"></path><path class="cls-1" d="M2147.7,467.95c-.4,7.72-1.51,15.72-.68,23.84.23,4.49.46,9.07.7,13.62-1.84-.43-3.9-.99-5.65-1.39-12.39-2.92-22.52-4.85-29.36-6.03,0-.08,0-.15-.01-.23-.14-4.94-.28-9.88-.42-14.75-.34-4.87-.15-9.66-.2-14.32.11-4.64-.44-9.21-.18-13.49.06-1.28.02-2.4.05-3.65,6.98,3.18,16.39,7.3,27.7,11.83,2.61,1.06,5.36,2.17,8.15,3.27-.03.44-.06.85-.09,1.29Z"></path><path class="cls-1" d="M2213.81,527.97c-11.16-4.47-22.25-8.86-32.9-12.65-5.32-1.9-10.43-3.77-15.52-5.31-.48-6.33-.96-12.67-1.43-18.9-.66-6.22-.72-12.34-.76-18.36,5.85,2.42,11.68,5.43,17.94,7.99,9.58,4.39,19.71,8.69,29.96,12.99-.04,3.93.05,7.91.62,11.89.68,7.38,1.38,14.87,2.08,22.36Z"></path><path class="cls-1" d="M2148.48,517.65c1.31,7.74,2.62,15.47,3.91,23.09.54,4.38,1.61,8.6,2.8,12.74-3.55-1.2-7.03-2.36-10.48-3.09-4.55-1.14-8.91-2-12.94-2.77-5.9-1.18-11.1-2-15.34-2.58-.18-1.65-.27-3.18-.52-4.88-.66-4.16-.55-8.81-1.1-13.41-.38-4.65-1.05-9.39-1.15-14.28-.24-3.62-.48-7.3-.73-10.98,6.2,3.11,15.09,7.39,25.87,12.06,2.99,1.32,6.43,2.72,9.68,4.09Z"></path><path class="cls-1" d="M2164.07,424.99c4.11,1.7,8.34,3.42,12.8,5.13,7.55,2.69,14.84,7.24,22.84,10.72,4.78,2.34,9.83,4.64,14.81,6.96-.66,4.14-1.34,8.17-1.92,12.7-.8,4.8-.95,9.86-1.06,15.02-8.43-3.25-16.76-6.39-24.87-9.24-7.89-2.75-15.36-5.86-22.88-7.52-.28-.07-.54-.13-.82-.2-.15-3.95-.26-7.83.09-11.56.47-6.77.7-13.23.89-19.22.01-.97.09-1.84.12-2.78Z"></path><path class="cls-1" d="M2290.56,514.16c-1.72-8.32-3.39-16.56-4.56-24.52-.33-2.47-.82-4.86-1.28-7.25,4.29,2.22,8.64,4.53,12.85,6.61,7.63,4.21,15.6,7.14,22.43,11.56,2.52,1.54,4.95,2.96,7.39,4.4.41,4.17.82,8.43,1.87,12.65,1.14,5.07,2.3,10.23,3.45,15.39,1.6,4.69,3.2,9.37,4.78,13.99-4.89-3.78-10.55-8.06-17.05-12.76-5.37-3.92-11.19-8.16-17.48-12.44-3.76-2.76-8.02-5.21-12.41-7.63Z"></path><path class="cls-1" d="M2167.38,526c2.57,1.27,5.14,2.57,7.85,3.71,13.16,6.25,27.42,12.28,41.66,18.36.33.16.66.32,1,.48.33,1.57.66,3.17.98,4.74,1.28,7.88,4.23,15.21,6.5,22.43,1.72,4.98,3.32,9.78,5.11,14.42-.41-.29-.73-.58-1.14-.87-3.67-2.81-8.04-5.24-12.41-7.87-8.84-5.17-18.49-10.4-28.28-15.33-5.15-2.14-10.34-4.2-15.47-6.16-1.53-7.18-3.26-14.53-4.1-22.19-.56-3.87-1.12-7.81-1.69-11.73Z"></path><path class="cls-1" d="M2231.33,527.05c-.9-7.66-1.81-15.32-2.69-22.86-.16-1.11-.21-2.2-.34-3.31.05.02.09.04.14.06,15.62,7.66,31.23,15.35,46.2,22.03.04.02.08.03.12.05.56,3.23,1.12,6.44,1.68,9.69,1.86,6.84,3.72,13.69,5.56,20.42,1.1,4.74,2.79,9.2,4.48,13.61-.93-.64-1.8-1.27-2.75-1.91-5.45-3.94-11.88-7.26-18.34-10.89-10.2-5.77-21.2-11.5-32.3-17.23-.58-3.23-1.16-6.42-1.75-9.66Z"></path><path class="cls-1" d="M2235.66,484.95c-2.97-1.17-5.9-2.3-8.87-3.47-.2-7.07-1.35-13.95-1.1-20.46.05-2.84-.04-5.33-.06-8.04,7.84,3.56,15.79,7.12,23.76,10.68,6.85,3.69,13.67,7.35,20.46,10.97-.05,5.43.39,11.03.79,16.86.37,4.04.65,8.19,1.07,12.37-11.68-6.3-23.78-12.61-36.05-18.93Z"></path><path class="cls-1" d="M2075.69,319.12c-11.27-2.61-22.6-5.03-34.04-7.1-47.42,75.8-47.51,178.65-.2,254.52,47.3,75.88,139.68,121.08,228.62,111.87,88.94-9.21,170.09-72.38,200.85-156.34-15.28-11.84-30.77-23.42-46.46-34.72-2.41-1.4-4.83-2.79-7.51-4.34-7.07-4.34-15.25-8.84-24.06-13.77-8.83-4.94-18.36-10.28-28.25-16.19-9.97-5.79-20.98-11.16-31.86-17.45-10.93-6.25-22.39-12.37-34.16-18.34-11.71-6.08-23.6-12.25-35.49-18.42-12.06-5.82-24.11-11.63-35.98-17.36-11.79-5.93-23.72-10.96-35.21-16.02-11.61-4.73-22.38-10.61-33.2-14.51-10.76-4.08-20.86-8.22-30.2-12.09-9.31-4-17.97-7.25-25.77-9.82-7.76-2.81-14.52-5.26-20.09-7.28-2.61-.98-4.91-1.86-6.98-2.66ZM2148.71,455.14c.29-3.18.62-6.32,1.28-9.33,1.25-6.98,2.66-13.52,3.97-19.53.4-1.75.78-3.36,1.14-5.02-25.45-10.62-42.19-19.21-42.19-19.21,0,0,18.11,2.98,45.04,9.71.18-.52.38-1.12.56-1.63,1.69-4.7,3.17-8.79,4.39-12.16,2.54-6.68,4.13-10.41,4.13-10.41,0,0-.17,4.14-.73,11.23-.33,3.51-.73,7.78-1.2,12.67-.08.64-.13,1.38-.21,2.03,5.3,1.33,10.79,2.73,16.58,4.36,7.98,1.91,15.79,5.54,24.11,8.69,3.86,1.5,7.89,3.2,11.83,4.8.54-2.14,1.1-4.25,1.7-6.17,1.4-4.69,2.63-8.77,3.64-12.14,2.12-6.68,3.49-10.41,3.49-10.41,0,0,.08,4.06-.05,11.03-.12,3.46-.26,7.65-.42,12.47-.18,2.63-.28,5.49-.31,8.48,10.45,4.33,21.03,8.79,31.69,13.34,4.46,2.51,8.85,5,13.28,7.51,0-.05,0-.11,0-.16.25-10.57,2.34-19.33,3.2-25.4,1.1-6.08,1.89-9.51,1.89-9.51,0,0,.69,3.52,1.6,9.6,1.1,6.08,1.58,14.71,3.38,24.95.34,2.1.64,4.54.98,6.77,8.33,4.76,16.48,9.5,24.26,14.23,7.21,4.44,14.46,8.39,20.57,13.13,0-.25-.03-.52-.02-.77,0-4.53.2-8.82.43-12.76.17-7.86,1.98-14.39,2.75-18.88.97-4.5,1.69-7.03,1.69-7.03,0,0,.76,2.59,1.8,7.05,1.19,4.45,1.95,10.77,3.82,18.2.88,3.72,1.8,7.72,2.54,11.95.69,4.24,2.24,8.59,3.17,13.15.15.63.33,1.3.47,1.94.77.61,1.6,1.27,2.36,1.87,22.19,17.55,36.11,30.53,36.11,30.53,0,0-14.17-6.7-35.03-18.42,1.06,4.09,2.14,8.21,3.21,12.35,1.44,4.74,2.87,9.49,4.29,14.16,1.2,4.75,2.95,9.23,4.38,13.68,1.59,4.36,2.54,8.93,4.15,12.84,1.56,3.95,2.83,7.81,4.03,11.42,2.24,7.24,5.05,13.29,6.34,17.66,1.45,4.36,2.14,6.93,2.14,6.93,0,0-1.95-1.81-5.12-5.14-3.03-3.47-7.81-7.84-12.11-14.52-2.25-3.26-4.7-6.83-7.08-10.75-2.54-3.87-4.51-8.15-6.74-12.59-1.08-2.25-2.22-4.54-3.28-6.89-6.77-3.08-15.39-7.14-25.39-12.21-5.94-2.99-12.38-6.22-19.06-9.86-.58-.33-1.25-.57-1.85-.89,2.98,12.16,5.61,24.38,8.99,35.66,1.48,4.72,2.54,9.44,3.79,13.93,14.41,10.82,23.15,18.52,23.15,18.52,0,0-7.85-2.89-20.16-8.32.98,3.22,2.02,6.55,2.88,9.54,2.66,9.98,6,18.24,7.56,24.17,1.75,5.91,2.61,9.35,2.61,9.35,0,0-2.18-2.8-5.73-7.83-3.37-5.18-8.84-12-13.58-21.53-2.49-4.69-5.2-9.81-7.84-15.34-1.01-1.96-1.87-4.06-2.75-6.14-5.09-2.43-10.55-5.03-16.21-7.99-5.94-3.23-12.64-5.44-19.16-8.64-6.83-2.99-13.81-6.24-20.85-9.61,1,4.64,2.09,9.21,3.19,13.68,1.97,6.94,2.85,14.1,5.03,20.3,1.49,4.59,2.68,8.86,3.9,13.13,7.04,6.08,11.11,10.27,11.11,10.27,0,0-3.41-.95-8.93-2.87,1.3,4.63,2.73,8.99,4.2,12.8,1.58,4.59,2.97,8.59,4.1,11.88,2.17,6.64,3.27,10.51,3.27,10.51,0,0-2.41-3.21-6.38-8.96-1.94-2.9-4.29-6.42-6.98-10.46-2.74-4-5.63-8.63-8.11-14.19-1.04-2.1-2.15-4.35-3.25-6.6-1.17-.49-2.33-.96-3.57-1.49-3.74-1.58-7.79-3.3-11.95-5.33-4.16-2.09-8.78-3.47-13.3-5.53-9.14-3.85-18.67-8.25-28.06-12.95-1.25-.52-2.46-1.09-3.71-1.62.05.17.07.36.12.52,1.91,6.45,3.5,12.66,4.98,18.45,1.34,5.79,3.01,11.12,4.72,15.78,1.53,4.71,2.87,8.82,3.96,12.2,2.1,6.81,3.15,10.77,3.15,10.77,0,0-2.38-3.34-6.29-9.29-1.9-3-4.22-6.65-6.87-10.83-1.3-2.11-2.67-4.35-4.13-6.71-1.34-2.44-2.45-5.19-3.77-7.97-2.59-5.6-5.41-11.73-8.17-18.33-1.76-3.82-3.09-7.9-4.35-12.08-2.66-1.26-5.39-2.5-7.95-3.77-4.51-2.09-8.65-4.71-12.86-6.47-4.19-1.81-8.08-3.73-11.68-5.54-4.31-2.11-8.09-4.12-11.37-5.94.03.31.08.66.1.97.51,7.54,1.83,14.05,2.06,18.59.4,4.56.47,7.21.47,7.21,0,0-1.47-2.21-3.78-6.16-2.14-4.06-5.76-9.41-8.4-16.87-1.44-3.67-3-7.7-4.41-12.04-1.58-4.33-2.52-8.93-3.67-13.74-1.07-4.81-2.31-9.78-2.73-14.95-.53-5.15-1.06-10.39-1.59-15.62.03-5.26.06-10.53.08-15.71-.08-5.18.7-10.25,1.29-15.14.69-4.88,1.18-9.61,2.34-14,.6-2.66,1.28-4.98,1.94-7.42-1.07-.52-1.8-.88-1.8-.88,0,0,.79.11,1.95.29.38-1.4.75-2.97,1.12-4.29,1.9-7.6,5.06-13.55,6.8-17.75,1.93-4.17,3.18-6.47,3.18-6.47,0,0,.18,2.69.22,7.25.19,4.59-.43,10.91-.24,18.54.01,1.42-.06,3.05-.06,4.54,7.62,1.34,18.16,3.37,30.75,6.23,1.92.43,3.97.9,5.98,1.36Z"></path><path class="cls-1" d="M2313.4,85.01c10.08.17,20.14,1.21,30.11,2.98,12.67,2.25,25.55-2.71,33.65-12.72l42.3-52.23-8.52,63.94c-1.79,13.39,4.05,26.79,15.33,34.23,17.33,11.43,33.08,25.28,46.33,41.34,15.71,19.04,28.12,40.84,35.85,64.1,15.43,46.4,11.7,96.79-1.7,142.71-13.38,45.87-35.94,88.12-58.35,130.01-2.33-2.19-5.76-5.37-10.17-9.36-9.02-7.82-21.19-19.64-37.74-31.77-16.16-12.63-35.51-26.84-57.25-40.34-10.8-6.88-21.82-14.27-33.79-20.45-11.82-6.44-23.84-12.98-35.85-19.53-12.45-5.71-24.89-11.42-37.15-17.03-12.06-6.04-24.84-9.93-36.82-14.54-12.1-4.32-23.59-8.97-35.05-11.85-11.34-3.21-22.13-5.96-32.07-8.46-4.98-1.22-9.69-2.56-14.27-3.52-4.63-.74-9.02-1.45-13.15-2.1-8.24-1.22-15.43-2.29-21.35-3.16-4.68-.63-8.31-1.09-11.3-1.45,24.8-59.25,45.52-109.41,85.01-158.54,36.97-45.98,95.85-73.27,155.94-72.26Z"></path></g></svg>